<?xml version="1.0" encoding="utf-8"?>
<?xml-stylesheet type="text/xsl" href="rss1.xsl"?>
<rss version="2.0" xmlns:atom="http://www.w3.org/2005/Atom" xmlns:content="http://purl.org/rss/1.0/modules/content/" xmlns:dc="http://purl.org/dc/elements/1.1/" xmlns:media="http://search.yahoo.com/mrss/">
<channel>
 <title>Getty</title>
 <link>http://www.gettyimg.com/</link>
 <atom:link href="http://www.gettyimg.com/" rel="self" type="application/rss+xml" />

 
                <item>
                <title><![CDATA[【Apple Music】WEB-RiP - Meghan Trainor &amp; T-Pain - Been Like This [Apple HD Music Video]]]></title>
                <link><![CDATA[https://sharemania.us/threads/meghan-trainor-t-pain-been-like-this-apple-hd-music-video.242302/]]></link>
                <description><![CDATA[<article>
<blockquote class="messageText SelectQuoteContainer ugc baseHtml">
<span style="font-size: 22px"><b>Meghan Trainor &amp; T-Pain - Been Like This [Apple HD Music Video]</b></span><br>
<br>
<img src="https://imgur.com/otAttNA.jpg" class="bbCodeImage LbImage" alt="[​IMG]" data-url="https://imgur.com/otAttNA.jpg" style=""><br>
<br>
<div class="bbCodeBlock bbCodeCode">
<div class="type">Code:</div>
<pre>General
Format                         : MPEG-4
Codec ID                       : M4V  (isom/iso4/M4V /mp42)
File size                      : 166 MiB
Duration                       : 3 min 21 s
Overall bit rate mode          : Variable
Overall bit rate               : 6 914 kb/s
Movie name                     : Been Like This (Official Music Video)
Performer                      : Meghan Trainor &amp; T-Pain
Genre                          : Pop
ContentType                    : Music Video
Recorded date                  : UTC 2024-03-29 07:00:00
Encoded date                   : UTC 2024-03-27 23:24:57
Tagged date                    : UTC 2024-03-27 23:24:57
Copyright                      : ℗ (C) 2024 Epic Records, a division of Sony Music Entertainment
Cover                          : Yes
Rating                         : None
GenreID                        : 1614
AppleStoreCountry              : United Kingdom
AlbumTitleID                   : 348580754
AppleStoreCatalogID            : 1738125570

Video
ID                             : 2
Format                         : AVC
Format/Info                    : Advanced Video Codec
Format profile                 : High@L4
Format settings                : CABAC / 4 Ref Frames
Format settings, CABAC         : Yes
Format settings, Reference fra : 4 frames
Codec ID                       : avc1
Codec ID/Info                  : Advanced Video Coding
Duration                       : 3 min 21 s
Bit rate                       : 6 641 kb/s
Maximum bit rate               : 15.5 Mb/s
Width                          : 1 920 pixels
Height                         : 1 080 pixels
Display aspect ratio           : 16:9
Frame rate mode                : Constant
Frame rate                     : 23.976 (24000/1001) FPS
Color space                    : YUV
Chroma subsampling             : 4:2:0
Bit depth                      : 8 bits
Scan type                      : Progressive
Bits/(Pixel*Frame)             : 0.134
Stream size                    : 159 MiB (96%)
Title                          : Core Media Video
Encoded date                   : UTC 2024-03-27 04:44:37
Tagged date                    : UTC 2024-03-27 23:24:59
Color range                    : Limited
Color primaries                : BT.709
Transfer characteristics       : BT.709
Matrix coefficients            : BT.709
Codec configuration box        : avcC

Audio
ID                             : 1
Format                         : AAC LC
Format/Info                    : Advanced Audio Codec Low Complexity
Codec ID                       : mp4a-40-2
Duration                       : 3 min 21 s
Duration_LastFrame             : -15 ms
Bit rate mode                  : Variable
Bit rate                       : 258 kb/s
Maximum bit rate               : 323 kb/s
Channel(s)                     : 2 channels
Channel layout                 : L R
Sampling rate                  : 48.0 kHz
Frame rate                     : 46.875 FPS (1024 SPF)
Compression mode               : Lossy
Stream size                    : 6.20 MiB (4%)
Title                          : Core Media Audio
Encoded date                   : UTC 2024-03-27 04:36:42
Tagged date                    : UTC 2024-03-27 23:24:59
</pre>
</div>
<div class="bbCodeBlock bbCodeVfcHH HiddenContent">
<div class="attribution type">Hidden Content:</div>
<blockquote>You must reply before you can see the hidden data contained here.</blockquote>
</div>
<div class="messageTextEndMarker">&nbsp;</div>
</blockquote>
</article>]]></description>
                <author><![CDATA[abby0511]]></author>
                </item>

                </channel></rss>